<?xml version="1.0" encoding="utf-8"?>
<!-- Generator: Adobe Illustrator 21.0.0, SVG Export Plug-In . SVG Version: 6.00 Build 0)  -->
<svg version="1.1" id="레이어_1" xmlns="http://www.w3.org/2000/svg" xmlns:xlink="http://www.w3.org/1999/xlink" x="0px"
	 y="0px" viewBox="0 0 512 512" style="enable-background:new 0 0 512 512;" xml:space="preserve">
<style type="text/css">
	.st0{fill:#F4F4F4;}
	.st1{fill:#B3B3B3;}
	.st2{fill:#999999;}
</style>
<rect class="st0" width="512" height="512"/>
<path class="st1" d="M109.5,280.5v-49c0-3.9-3.2-7-7-7h-49c-3.8,0-7,3.1-7,7v49c0,3.9,3.2,7,7,7h49
	C106.3,287.5,109.5,284.4,109.5,280.5z M65.8,261.2l8.8,10.5L86.8,256l15.8,21h-49L65.8,261.2z"/>
<g>
	<path class="st2" d="M139.1,240.4V281h-4.9v-49.7h3.8l32.9,41.4v-41.3h4.9V281h-4.3L139.1,240.4z"/>
	<path class="st2" d="M208.3,281.3c-3.5,0-6.6-0.7-9.5-2.1s-5.3-3.3-7.4-5.7c-2.1-2.4-3.6-5.1-4.8-8.1c-1.1-3-1.7-6.1-1.7-9.3
		c0-3.3,0.6-6.5,1.8-9.5s2.8-5.7,4.9-8c2.1-2.3,4.6-4.2,7.4-5.6c2.8-1.4,5.9-2.1,9.2-2.1c3.5,0,6.6,0.7,9.5,2.2s5.3,3.4,7.3,5.8
		c2,2.4,3.6,5.1,4.7,8.1c1.1,3,1.7,6.1,1.7,9.2c0,3.3-0.6,6.5-1.8,9.5s-2.8,5.7-4.9,8c-2.1,2.3-4.5,4.2-7.4,5.5
		C214.7,280.7,211.6,281.3,208.3,281.3z M189.9,256.1c0,2.7,0.4,5.3,1.3,7.8c0.9,2.5,2.1,4.7,3.8,6.7c1.6,1.9,3.6,3.5,5.8,4.6
		s4.7,1.7,7.5,1.7s5.3-0.6,7.6-1.8c2.3-1.2,4.2-2.8,5.8-4.8s2.8-4.2,3.7-6.6c0.9-2.5,1.3-5,1.3-7.6c0-2.7-0.5-5.3-1.4-7.8
		s-2.2-4.7-3.8-6.6c-1.6-1.9-3.6-3.4-5.8-4.6c-2.2-1.1-4.7-1.7-7.4-1.7c-2.8,0-5.3,0.6-7.6,1.8s-4.2,2.8-5.8,4.7
		c-1.6,2-2.8,4.2-3.7,6.6C190.3,251.1,189.9,253.6,189.9,256.1z"/>
	<path class="st2" d="M258.7,281v-49.7h4.9V281H258.7z"/>
	<path class="st2" d="M320.1,281v-40.8L302,271.8h-2.9L281,240.2V281h-5v-49.7h5l19.4,34l19.5-34h5V281H320.1z"/>
	<path class="st2" d="M352.8,231.3h4.1l20.7,49.7h-5.2l-6.4-15.5h-22.3l-6.4,15.5H332L352.8,231.3z M364.9,261.6l-10-24.6
		l-10.2,24.6H364.9z"/>
	<path class="st2" d="M418.8,273.7c-4.6,5.1-9.9,7.6-16,7.6c-3.4,0-6.5-0.7-9.3-2.2c-2.8-1.4-5.3-3.4-7.4-5.7
		c-2.1-2.4-3.7-5.1-4.9-8.1c-1.2-3-1.8-6.1-1.8-9.3c0-3.3,0.6-6.5,1.7-9.5s2.7-5.7,4.8-8c2.1-2.3,4.5-4.2,7.3-5.5
		c2.8-1.4,5.9-2.1,9.2-2.1c2.4,0,4.6,0.3,6.6,0.8s3.8,1.3,5.4,2.2c1.6,1,2.9,2.1,4.1,3.4c1.1,1.3,2.1,2.8,2.9,4.4l-3.8,2.5
		c-1.6-3.1-3.8-5.3-6.4-6.8c-2.6-1.4-5.6-2.2-8.9-2.2c-2.8,0-5.2,0.6-7.5,1.8c-2.2,1.2-4.1,2.7-5.7,4.7c-1.6,1.9-2.8,4.2-3.6,6.6
		c-0.8,2.5-1.3,5.1-1.3,7.7c0,2.8,0.5,5.5,1.4,8c1,2.5,2.3,4.7,4,6.6s3.7,3.4,5.9,4.5c2.3,1.1,4.7,1.7,7.4,1.7c2.8,0,5.6-0.7,8.2-2
		s5.1-3.4,7.5-6.3v-8.3h-11.1v-3.8H423V281h-4.1v-7.3H418.8z"/>
	<path class="st2" d="M466.4,276.7v4.3H433v-49.7h32.8v4.3H438v17.9h24.3v4.1H438v19h28.4V276.7z"/>
</g>
</svg>
