<?xml version="1.0" encoding="utf-8"?>
<!-- Generator: Adobe Illustrator 21.0.0, SVG Export Plug-In . SVG Version: 6.00 Build 0)  -->
<svg version="1.1" id="레이어_1" xmlns="http://www.w3.org/2000/svg" xmlns:xlink="http://www.w3.org/1999/xlink" x="0px"
	 y="0px" viewBox="0 0 512 512" style="enable-background:new 0 0 512 512;" xml:space="preserve">
<style type="text/css">
	.st0{fill:#3FA9F5;}
	.st1{fill:#FFFFFF;}
</style>
<circle class="st0" cx="256" cy="256" r="256"/>
<g>
	<path class="st1" d="M156.6,131.3h50.6v135.8c0,21.6,0.6,35.5,2,41.9c2.2,10.2,7.3,18.5,15.5,24.7c8.1,6.2,19.3,9.3,33.4,9.3
		c14.4,0,25.1-3,32.5-8.8c7.3-5.9,11.7-13,13.1-21.6c1.5-8.6,2.2-22.7,2.2-42.6V131.3h50.6V263c0,30.1-1.4,51.4-4.1,63.8
		c-2.7,12.4-7.8,22.9-15.2,31.5s-17.2,15.4-29.5,20.5s-28.4,7.7-48.3,7.7c-24,0-42.1-2.7-54.4-8.3c-12.4-5.5-22.2-12.7-29.4-21.6
		s-11.9-18.1-14.2-27.8c-3.3-14.4-4.9-35.6-4.9-63.6V131.3H156.6z"/>
</g>
</svg>
